<mxfile host="65bd71144e">
    <diagram id="KUzoZ_WBEfeIF54OlFjl" name="Page-1">
        <mxGraphModel dx="1667" dy="831" grid="1" gridSize="10" guides="1" tooltips="1" connect="1" arrows="1" fold="1" page="1" pageScale="1" pageWidth="827" pageHeight="1169" math="0" shadow="0">
            <root>
                <mxCell id="0"/>
                <mxCell id="1" parent="0"/>
                <mxCell id="2" value="&lt;b&gt;Parlimentary&lt;br&gt;Affair&lt;br&gt;Identifier&lt;br&gt;Entity&lt;/b&gt;" style="ellipse;whiteSpace=wrap;html=1;rounded=0;shadow=0;glass=0;comic=0;strokeColor=#000000;strokeWidth=2;fillColor=#fddbc7;gradientColor=none;fontSize=14;fontColor=#000000;align=center;" parent="1" vertex="1">
                    <mxGeometry x="160" y="80" width="120" height="120" as="geometry"/>
                </mxCell>
                <mxCell id="3" value="parlimantaryAffairIdentifier 1...1" style="endArrow=block;html=1;strokeColor=#000000;fontSize=14;fontColor=#000000;endFill=1;exitX=1;exitY=0.5;exitDx=0;exitDy=0;entryX=0;entryY=0.5;entryDx=0;entryDy=0;" parent="1" source="2" target="4" edge="1">
                    <mxGeometry width="50" height="50" relative="1" as="geometry">
                        <mxPoint x="310" y="130" as="sourcePoint"/>
                        <mxPoint x="480" y="140" as="targetPoint"/>
                    </mxGeometry>
                </mxCell>
                <mxCell id="4" value="xsd:string" style="whiteSpace=wrap;html=1;rounded=0;shadow=0;glass=0;comic=0;strokeColor=#000000;strokeWidth=2;fillColor=#FFFFFF;gradientColor=none;fontSize=14;fontColor=#000000;align=center;" parent="1" vertex="1">
                    <mxGeometry x="520" y="130" width="140" height="20" as="geometry"/>
                </mxCell>
            </root>
        </mxGraphModel>
    </diagram>
</mxfile>